<svg width="862" height="101" viewBox="0 0 862 101" fill="none" xmlns="http://www.w3.org/2000/svg">
<path d="M49.3516 78V4.0625H37.418V34.9883H12.5352V4.0625H0.652344V78H12.5352V45.043H37.418V78H49.3516ZM89.9766 79.0156C95.3255 79.0156 99.8789 77.9661 103.637 75.8672C107.428 73.7682 110.238 71.3984 112.066 68.7578L105.566 62.4609C103.874 64.6276 101.724 66.3034 99.1172 67.4883C96.5104 68.6393 93.7005 69.2148 90.6875 69.2148C88.487 69.2148 86.4557 68.8424 84.5938 68.0977C82.7656 67.3529 81.1745 66.3034 79.8203 64.9492C78.4661 63.6628 77.3997 62.207 76.6211 60.582C75.8424 58.957 75.2669 56.9427 74.8945 54.5391V54.2852H112.98V49.0547C112.98 45.1276 112.456 41.5052 111.406 38.1875C110.357 34.8698 108.799 32.0091 106.734 29.6055C104.669 27.2357 102.113 25.3906 99.0664 24.0703C96.0195 22.7161 92.5156 22.0391 88.5547 22.0391C85 22.0391 81.6484 22.7161 78.5 24.0703C75.3854 25.3906 72.6432 27.2865 70.2734 29.7578C67.9036 32.2292 66.0417 35.2083 64.6875 38.6953C63.3333 42.1823 62.6562 46.0755 62.6562 50.375V52.457C62.6562 56.2148 63.2995 59.7188 64.5859 62.9688C65.9062 66.1849 67.7682 68.9779 70.1719 71.3477C72.5755 73.7513 75.4531 75.6302 78.8047 76.9844C82.1901 78.3385 85.9141 79.0156 89.9766 79.0156ZM88.5039 31.8906C90.5352 31.8906 92.3125 32.2461 93.8359 32.957C95.3932 33.6341 96.6797 34.5482 97.6953 35.6992C98.7448 36.8841 99.5573 38.2721 100.133 39.8633C100.708 41.4206 100.996 42.9948 100.996 44.5859V45.3984H75.1484C75.5208 43.2995 76.0964 41.4206 76.875 39.7617C77.6536 38.1029 78.6185 36.681 79.7695 35.4961C80.9206 34.3451 82.224 33.4648 83.6797 32.8555C85.1693 32.2122 86.7773 31.8906 88.5039 31.8906ZM161.883 78H174.273V77.1367C173.596 75.7148 173.072 74.0221 172.699 72.0586C172.361 70.0612 172.191 67.8268 172.191 65.3555V40.9297C172.191 37.8151 171.616 35.0729 170.465 32.7031C169.314 30.2995 167.723 28.319 165.691 26.7617C163.66 25.2044 161.24 24.0365 158.43 23.2578C155.654 22.4453 152.658 22.0391 149.441 22.0391C145.853 22.0391 142.654 22.513 139.844 23.4609C137.068 24.375 134.715 25.6276 132.785 27.2188C130.855 28.776 129.383 30.5703 128.367 32.6016C127.352 34.6328 126.827 36.7487 126.793 38.9492H138.98C138.98 37.8997 139.167 36.918 139.539 36.0039C139.945 35.056 140.555 34.2604 141.367 33.6172C142.18 32.9062 143.195 32.3477 144.414 31.9414C145.667 31.5352 147.122 31.332 148.781 31.332C150.609 31.332 152.217 31.569 153.605 32.043C155.027 32.4831 156.229 33.1263 157.211 33.9727C158.125 34.819 158.819 35.8177 159.293 36.9688C159.801 38.1198 160.055 39.4062 160.055 40.8281V44.5352H151.219C147.258 44.5352 143.703 44.9076 140.555 45.6523C137.44 46.3971 134.816 47.4805 132.684 48.9023C130.382 50.4258 128.621 52.3555 127.402 54.6914C126.217 56.9935 125.625 59.651 125.625 62.6641C125.625 65 126.082 67.1836 126.996 69.2148C127.944 71.2122 129.247 72.9219 130.906 74.3438C132.599 75.7995 134.613 76.9505 136.949 77.7969C139.319 78.6094 141.926 79.0156 144.77 79.0156C146.53 79.0156 148.172 78.8464 149.695 78.5078C151.219 78.1693 152.641 77.6953 153.961 77.0859C155.281 76.5104 156.466 75.8333 157.516 75.0547C158.599 74.2422 159.564 73.3958 160.41 72.5156C160.579 73.5651 160.766 74.5807 160.969 75.5625C161.206 76.5104 161.51 77.3229 161.883 78ZM147.105 69.2656C145.548 69.2656 144.194 69.0794 143.043 68.707C141.892 68.3008 140.927 67.7591 140.148 67.082C139.37 66.4049 138.777 65.5924 138.371 64.6445C137.965 63.6628 137.762 62.6133 137.762 61.4961C137.762 60.1419 137.999 58.9232 138.473 57.8398C138.98 56.7565 139.742 55.8255 140.758 55.0469C141.909 54.1328 143.449 53.4388 145.379 52.9648C147.309 52.457 149.594 52.2031 152.234 52.2031H160.055V62.3594C159.615 63.2396 158.988 64.0859 158.176 64.8984C157.363 65.7109 156.398 66.4388 155.281 67.082C154.164 67.7253 152.911 68.25 151.523 68.6562C150.169 69.0625 148.697 69.2656 147.105 69.2656ZM227.238 22.0391C223.447 22.0391 219.977 22.9193 216.828 24.6797C213.714 26.4401 211.039 28.8607 208.805 31.9414L208.754 30.6719L208.246 23.0547H196.871V78H209.008V44.0781C209.651 42.4531 210.447 41.0143 211.395 39.7617C212.342 38.5091 213.493 37.4766 214.848 36.6641C216.1 35.8177 217.539 35.1914 219.164 34.7852C220.789 34.3789 222.617 34.1758 224.648 34.1758C226.443 34.1758 228.237 34.2773 230.031 34.4805C231.859 34.6836 233.704 34.9883 235.566 35.3945L237.293 23.4102C236.243 23.0378 234.788 22.7161 232.926 22.4453C231.098 22.1745 229.202 22.0391 227.238 22.0391ZM321.082 23.0547H310.52V78H321.691V35.8008C321.895 35.293 322.115 34.8359 322.352 34.4297C322.622 34.0234 322.927 33.668 323.266 33.3633C323.706 32.9232 324.23 32.6016 324.84 32.3984C325.483 32.1615 326.211 32.043 327.023 32.043C327.768 32.043 328.428 32.1445 329.004 32.3477C329.613 32.5508 330.138 32.8724 330.578 33.3125C331.018 33.7526 331.34 34.362 331.543 35.1406C331.78 35.8854 331.898 36.7995 331.898 37.8828V78H342.867V37.2227C342.867 36.8841 342.867 36.6302 342.867 36.4609C342.867 36.2578 342.867 36.0885 342.867 35.9531C343.003 35.3776 343.206 34.8698 343.477 34.4297C343.747 33.9557 344.086 33.5495 344.492 33.2109C344.932 32.8385 345.44 32.5508 346.016 32.3477C346.591 32.1445 347.285 32.043 348.098 32.043C348.809 32.043 349.469 32.1445 350.078 32.3477C350.721 32.5508 351.263 32.8724 351.703 33.3125C352.143 33.7865 352.482 34.4128 352.719 35.1914C352.956 35.9362 353.074 36.8503 353.074 37.9336V78H364.246V38.0352C364.246 35.1576 363.941 32.7031 363.332 30.6719C362.757 28.6068 361.927 26.931 360.844 25.6445C359.76 24.4258 358.474 23.5286 356.984 22.9531C355.529 22.3438 353.921 22.0391 352.16 22.0391C350.806 22.0391 349.553 22.2083 348.402 22.5469C347.285 22.8854 346.27 23.3594 345.355 23.9688C344.645 24.4427 343.984 25.0182 343.375 25.6953C342.766 26.3724 342.224 27.1003 341.75 27.8789C341.411 27.0326 341.005 26.2878 340.531 25.6445C340.057 24.9674 339.516 24.3919 338.906 23.918C338.128 23.2747 337.197 22.8008 336.113 22.4961C335.03 22.1914 333.811 22.0391 332.457 22.0391C329.85 22.0391 327.616 22.6654 325.754 23.918C323.926 25.1706 322.487 26.8971 321.438 29.0977L321.082 23.0547ZM383.543 100.191C386.217 100.191 388.553 99.7174 390.551 98.7695C392.548 97.8555 394.275 96.7044 395.73 95.3164C397.186 93.9622 398.388 92.4727 399.336 90.8477C400.318 89.2565 401.13 87.75 401.773 86.3281L429.652 23.0547H416.195L402.941 56.7734L400.656 62.6641L398.777 56.6211L385.117 23.0547H371.762L395.172 75.5625L391.719 82.1133C391.346 82.8581 390.94 83.569 390.5 84.2461C390.094 84.9232 389.552 85.7018 388.875 86.582C388.164 87.4622 387.335 88.2409 386.387 88.918C385.439 89.6289 384.372 89.9844 383.188 89.9844C382.646 89.9844 381.935 89.9505 381.055 89.8828C380.208 89.849 379.447 89.8151 378.77 89.7812L377.094 99.2773C378.076 99.5143 379.108 99.7174 380.191 99.8867C381.275 100.09 382.392 100.191 383.543 100.191ZM513.695 30.875V0H501.559V78H513.695V38.2383C514.271 37.3581 514.931 36.5625 515.676 35.8516C516.454 35.1406 517.284 34.5312 518.164 34.0234C519.214 33.3802 520.365 32.8893 521.617 32.5508C522.904 32.2122 524.258 32.043 525.68 32.043C527.508 32.043 529.116 32.2969 530.504 32.8047C531.926 33.2786 533.128 34.0234 534.109 35.0391C535.057 35.987 535.768 37.2227 536.242 38.7461C536.75 40.2695 537.004 42.0469 537.004 44.0781V78H549.141V44.1797C549.141 40.2865 548.667 36.9518 547.719 34.1758C546.805 31.3659 545.501 29.0638 543.809 27.2695C542.116 25.4753 540.068 24.1549 537.664 23.3086C535.294 22.4622 532.671 22.0391 529.793 22.0391C527.728 22.0391 525.764 22.3438 523.902 22.9531C522.074 23.5286 520.398 24.375 518.875 25.4922C517.893 26.1693 516.962 26.9648 516.082 27.8789C515.202 28.793 514.406 29.7917 513.695 30.875ZM589.664 79.0156C595.013 79.0156 599.566 77.9661 603.324 75.8672C607.116 73.7682 609.926 71.3984 611.754 68.7578L605.254 62.4609C603.561 64.6276 601.411 66.3034 598.805 67.4883C596.198 68.6393 593.388 69.2148 590.375 69.2148C588.174 69.2148 586.143 68.8424 584.281 68.0977C582.453 67.3529 580.862 66.3034 579.508 64.9492C578.154 63.6628 577.087 62.207 576.309 60.582C575.53 58.957 574.954 56.9427 574.582 54.5391V54.2852H612.668V49.0547C612.668 45.1276 612.143 41.5052 611.094 38.1875C610.044 34.8698 608.487 32.0091 606.422 29.6055C604.357 27.2357 601.801 25.3906 598.754 24.0703C595.707 22.7161 592.203 22.0391 588.242 22.0391C584.688 22.0391 581.336 22.7161 578.188 24.0703C575.073 25.3906 572.331 27.2865 569.961 29.7578C567.591 32.2292 565.729 35.2083 564.375 38.6953C563.021 42.1823 562.344 46.0755 562.344 50.375V52.457C562.344 56.2148 562.987 59.7188 564.273 62.9688C565.594 66.1849 567.456 68.9779 569.859 71.3477C572.263 73.7513 575.141 75.6302 578.492 76.9844C581.878 78.3385 585.602 79.0156 589.664 79.0156ZM588.191 31.8906C590.223 31.8906 592 32.2461 593.523 32.957C595.081 33.6341 596.367 34.5482 597.383 35.6992C598.432 36.8841 599.245 38.2721 599.82 39.8633C600.396 41.4206 600.684 42.9948 600.684 44.5859V45.3984H574.836C575.208 43.2995 575.784 41.4206 576.562 39.7617C577.341 38.1029 578.306 36.681 579.457 35.4961C580.608 34.3451 581.911 33.4648 583.367 32.8555C584.857 32.2122 586.465 31.8906 588.191 31.8906ZM661.57 78H673.961V77.1367C673.284 75.7148 672.759 74.0221 672.387 72.0586C672.048 70.0612 671.879 67.8268 671.879 65.3555V40.9297C671.879 37.8151 671.303 35.0729 670.152 32.7031C669.001 30.2995 667.41 28.319 665.379 26.7617C663.348 25.2044 660.927 24.0365 658.117 23.2578C655.341 22.4453 652.345 22.0391 649.129 22.0391C645.54 22.0391 642.341 22.513 639.531 23.4609C636.755 24.375 634.402 25.6276 632.473 27.2188C630.543 28.776 629.07 30.5703 628.055 32.6016C627.039 34.6328 626.514 36.7487 626.48 38.9492H638.668C638.668 37.8997 638.854 36.918 639.227 36.0039C639.633 35.056 640.242 34.2604 641.055 33.6172C641.867 32.9062 642.883 32.3477 644.102 31.9414C645.354 31.5352 646.81 31.332 648.469 31.332C650.297 31.332 651.905 31.569 653.293 32.043C654.715 32.4831 655.917 33.1263 656.898 33.9727C657.812 34.819 658.507 35.8177 658.98 36.9688C659.488 38.1198 659.742 39.4062 659.742 40.8281V44.5352H650.906C646.945 44.5352 643.391 44.9076 640.242 45.6523C637.128 46.3971 634.504 47.4805 632.371 48.9023C630.069 50.4258 628.309 52.3555 627.09 54.6914C625.905 56.9935 625.312 59.651 625.312 62.6641C625.312 65 625.77 67.1836 626.684 69.2148C627.632 71.2122 628.935 72.9219 630.594 74.3438C632.286 75.7995 634.301 76.9505 636.637 77.7969C639.007 78.6094 641.613 79.0156 644.457 79.0156C646.217 79.0156 647.859 78.8464 649.383 78.5078C650.906 78.1693 652.328 77.6953 653.648 77.0859C654.969 76.5104 656.154 75.8333 657.203 75.0547C658.286 74.2422 659.251 73.3958 660.098 72.5156C660.267 73.5651 660.453 74.5807 660.656 75.5625C660.893 76.5104 661.198 77.3229 661.57 78ZM646.793 69.2656C645.236 69.2656 643.882 69.0794 642.73 68.707C641.579 68.3008 640.615 67.7591 639.836 67.082C639.057 66.4049 638.465 65.5924 638.059 64.6445C637.652 63.6628 637.449 62.6133 637.449 61.4961C637.449 60.1419 637.686 58.9232 638.16 57.8398C638.668 56.7565 639.43 55.8255 640.445 55.0469C641.596 54.1328 643.137 53.4388 645.066 52.9648C646.996 52.457 649.281 52.2031 651.922 52.2031H659.742V62.3594C659.302 63.2396 658.676 64.0859 657.863 64.8984C657.051 65.7109 656.086 66.4388 654.969 67.082C653.852 67.7253 652.599 68.25 651.211 68.6562C649.857 69.0625 648.384 69.2656 646.793 69.2656ZM691.277 0V10.1055H708.645V67.9453H691.277V78H737.539V67.9453H720.883V0H691.277ZM775.777 9.64844H763.59V23.0547H750.285V32.1445H763.59V59.1602C763.59 62.681 764.047 65.694 764.961 68.1992C765.909 70.7044 767.212 72.7695 768.871 74.3945C770.53 75.9857 772.51 77.1706 774.812 77.9492C777.148 78.694 779.704 79.0664 782.48 79.0664C784.004 79.0664 785.527 78.9818 787.051 78.8125C788.608 78.6771 790.098 78.474 791.52 78.2031C792.941 77.9323 794.262 77.6107 795.48 77.2383C796.733 76.832 797.799 76.3581 798.68 75.8164L797.359 67.4375C796.75 67.5729 795.988 67.7422 795.074 67.9453C794.194 68.1146 793.229 68.2669 792.18 68.4023C791.164 68.5716 790.098 68.707 788.98 68.8086C787.863 68.9102 786.78 68.9609 785.73 68.9609C784.275 68.9609 782.938 68.7917 781.719 68.4531C780.5 68.1146 779.451 67.5391 778.57 66.7266C777.69 65.9479 776.996 64.8815 776.488 63.5273C776.014 62.1393 775.777 60.4297 775.777 58.3984V32.1445H796.445V23.0547H775.777V9.64844ZM826 30.875V0H813.863V78H826V38.2383C826.576 37.3581 827.236 36.5625 827.98 35.8516C828.759 35.1406 829.589 34.5312 830.469 34.0234C831.518 33.3802 832.669 32.8893 833.922 32.5508C835.208 32.2122 836.562 32.043 837.984 32.043C839.812 32.043 841.421 32.2969 842.809 32.8047C844.23 33.2786 845.432 34.0234 846.414 35.0391C847.362 35.987 848.073 37.2227 848.547 38.7461C849.055 40.2695 849.309 42.0469 849.309 44.0781V78H861.445V44.1797C861.445 40.2865 860.971 36.9518 860.023 34.1758C859.109 31.3659 857.806 29.0638 856.113 27.2695C854.421 25.4753 852.372 24.1549 849.969 23.3086C847.599 22.4622 844.975 22.0391 842.098 22.0391C840.033 22.0391 838.069 22.3438 836.207 22.9531C834.379 23.5286 832.703 24.375 831.18 25.4922C830.198 26.1693 829.267 26.9648 828.387 27.8789C827.507 28.793 826.711 29.7917 826 30.875Z" fill="white"/>
</svg>
