<svg width="1040" height="454" viewBox="0 0 1040 454" fill="none" xmlns="http://www.w3.org/2000/svg">
<path d="M188.007 133.484L202.464 147.933C202.803 148.272 203.206 148.54 203.648 148.723C204.091 148.906 204.566 149 205.045 148.999C205.524 148.998 205.999 148.902 206.441 148.718C206.883 148.533 207.284 148.263 207.622 147.922L222.045 133.377C223.333 132.091 224.354 130.564 225.051 128.883C225.748 127.203 226.107 125.401 226.108 123.582C226.109 121.762 225.751 119.96 225.055 118.279C224.36 116.598 223.339 115.07 222.053 113.784L222.047 113.777C219.834 111.571 216.942 110.175 213.838 109.815C210.733 109.456 207.599 110.154 204.94 111.796C202.039 110.055 198.602 109.435 195.276 110.053C191.95 110.671 188.964 112.484 186.882 115.15C184.8 117.817 183.765 121.153 183.972 124.53C184.179 127.906 185.614 131.091 188.006 133.483L188.007 133.484ZM197.808 117.104C199.518 117.1 201.162 117.766 202.388 118.958C203.03 119.582 203.881 119.946 204.776 119.982L204.867 119.988C205.369 120.008 205.87 119.924 206.338 119.741C206.806 119.559 207.231 119.281 207.586 118.925C208.823 117.693 210.498 117 212.243 117.001C213.989 117.001 215.664 117.694 216.9 118.928L216.903 118.931C217.514 119.542 217.999 120.269 218.329 121.068C218.659 121.867 218.828 122.724 218.827 123.589C218.825 124.454 218.653 125.31 218.32 126.108C217.988 126.906 217.501 127.631 216.887 128.241L205.023 140.205L193.148 128.337C192.228 127.416 191.602 126.244 191.348 124.967C191.094 123.691 191.225 122.368 191.723 121.165C192.222 119.963 193.066 118.936 194.148 118.213C195.231 117.49 196.503 117.105 197.804 117.105L197.808 117.104Z" fill="#0E6AC7"/>
<path d="M259.956 203.052L259.956 96.9462C259.951 92.4648 258.169 88.1683 255 84.9995C251.831 81.8306 247.535 80.0481 243.053 80.0431L169.416 80.0413C168.896 80.0413 168.382 80.1526 167.909 80.3678C167.435 80.583 167.014 80.8972 166.672 81.289C166.33 81.6809 166.077 82.1414 165.928 82.6396C165.779 83.1378 165.739 83.662 165.81 84.1771C165.93 85.048 166.361 85.8461 167.024 86.4238C167.687 87.0014 168.536 87.3196 169.416 87.3195L243.054 87.3199C245.605 87.3229 248.051 88.3378 249.856 90.1421C251.66 91.9463 252.675 94.3925 252.678 96.9441L252.678 203.05C252.675 205.602 251.66 208.048 249.856 209.852C248.051 211.657 245.605 212.672 243.053 212.675L136.947 212.674C134.396 212.671 131.95 211.656 130.146 209.852C128.341 208.047 127.326 205.601 127.323 203.05L127.323 166.239L138.918 166.239L149.366 196.93C149.618 197.672 150.105 198.314 150.751 198.758C151.398 199.202 152.171 199.425 152.955 199.394C153.739 199.363 154.492 199.079 155.102 198.585C155.711 198.091 156.145 197.414 156.338 196.653L168.816 147.543L183.968 183.893C184.236 184.533 184.68 185.084 185.25 185.48C185.82 185.876 186.491 186.101 187.184 186.129C187.877 186.156 188.564 185.984 189.163 185.634C189.762 185.284 190.249 184.77 190.566 184.153L199.754 166.236L229.794 166.236C230.754 166.228 231.672 165.842 232.348 165.16C233.024 164.478 233.404 163.557 233.404 162.597C233.404 161.637 233.024 160.716 232.348 160.034C231.672 159.353 230.754 158.966 229.794 158.958L197.531 158.959C196.861 158.959 196.205 159.143 195.633 159.492C195.062 159.841 194.598 160.341 194.293 160.937L187.669 173.853L171.331 134.675C171.037 133.97 170.528 133.375 169.878 132.975C169.227 132.575 168.467 132.389 167.705 132.445C166.944 132.501 166.219 132.795 165.633 133.286C165.048 133.777 164.632 134.439 164.444 135.179L152.301 182.979L144.967 161.432C144.722 160.713 144.258 160.088 143.64 159.646C143.023 159.203 142.282 158.965 141.522 158.965L127.321 158.965L127.321 96.9479C127.323 94.3962 128.338 91.9498 130.143 90.1455C131.947 88.3411 134.393 87.3262 136.945 87.3234L144.922 87.3234C145.442 87.3234 145.956 87.2121 146.429 86.9969C146.903 86.7816 147.324 86.4675 147.666 86.0757C148.008 85.6838 148.261 85.2232 148.41 84.7251C148.559 84.2269 148.599 83.7027 148.528 83.1876C148.408 82.3166 147.977 81.5185 147.314 80.9408C146.652 80.3631 145.802 80.0448 144.923 80.0448L136.946 80.0448C132.464 80.0499 128.168 81.8324 124.999 85.0012C121.831 88.1699 120.048 92.4662 120.043 96.9475L120.043 203.053C120.048 207.535 121.831 211.831 124.999 215C128.168 218.168 132.464 219.951 136.946 219.956L243.051 219.956C247.533 219.952 251.83 218.169 255 215C258.169 211.831 259.952 207.534 259.956 203.052Z" fill="#0E6AC7"/>
<path d="M178.219 374H165.422V341.145H132.363V374H119.516V300.062H132.363V330.836H165.422V300.062H178.219V374ZM224.777 375.016C216.957 375.016 210.609 372.561 205.734 367.652C200.893 362.71 198.472 356.142 198.472 347.949V346.426C198.472 340.941 199.522 336.049 201.621 331.75C203.754 327.417 206.733 324.048 210.558 321.645C214.384 319.241 218.649 318.039 223.355 318.039C230.837 318.039 236.609 320.426 240.672 325.199C244.768 329.973 246.816 336.727 246.816 345.461V350.438H210.914C211.286 354.974 212.793 358.562 215.433 361.203C218.108 363.844 221.459 365.164 225.488 365.164C231.142 365.164 235.746 362.879 239.3 358.309L245.953 364.656C243.752 367.94 240.807 370.496 237.117 372.324C233.461 374.118 229.347 375.016 224.777 375.016ZM223.304 327.941C219.919 327.941 217.177 329.126 215.078 331.496C213.013 333.866 211.692 337.167 211.117 341.398H234.629V340.484C234.358 336.354 233.257 333.24 231.328 331.141C229.398 329.008 226.724 327.941 223.304 327.941ZM297.589 374C297.048 372.951 296.574 371.241 296.167 368.871C292.24 372.967 287.433 375.016 281.745 375.016C276.227 375.016 271.725 373.441 268.238 370.293C264.751 367.145 263.007 363.251 263.007 358.613C263.007 352.757 265.174 348.271 269.507 345.156C273.874 342.008 280.104 340.434 288.195 340.434H295.761V336.828C295.761 333.984 294.966 331.716 293.374 330.023C291.783 328.297 289.363 327.434 286.113 327.434C283.303 327.434 281.001 328.145 279.206 329.566C277.412 330.954 276.515 332.732 276.515 334.898H264.175C264.175 331.885 265.174 329.076 267.171 326.469C269.169 323.828 271.877 321.763 275.296 320.273C278.749 318.784 282.592 318.039 286.824 318.039C293.256 318.039 298.385 319.664 302.21 322.914C306.036 326.13 307.999 330.667 308.101 336.523V361.305C308.101 366.247 308.795 370.191 310.183 373.137V374H297.589ZM284.031 365.113C286.468 365.113 288.753 364.521 290.886 363.336C293.053 362.151 294.678 360.56 295.761 358.562V348.203H289.109C284.538 348.203 281.102 348.999 278.8 350.59C276.498 352.181 275.347 354.432 275.347 357.344C275.347 359.714 276.126 361.609 277.683 363.031C279.274 364.419 281.39 365.113 284.031 365.113ZM358.112 330.328C356.487 330.057 354.812 329.922 353.085 329.922C347.431 329.922 343.623 332.089 341.659 336.422V374H329.319V319.055H341.101L341.405 325.199C344.384 320.426 348.515 318.039 353.796 318.039C355.556 318.039 357.012 318.276 358.163 318.75L358.112 330.328ZM420.049 319.055L420.405 324.793C424.264 320.29 429.545 318.039 436.248 318.039C443.595 318.039 448.622 320.849 451.33 326.469C455.325 320.849 460.945 318.039 468.19 318.039C474.25 318.039 478.752 319.715 481.698 323.066C484.677 326.418 486.2 331.361 486.268 337.895V374H473.928V338.25C473.928 334.763 473.166 332.207 471.643 330.582C470.12 328.957 467.597 328.145 464.077 328.145C461.267 328.145 458.965 328.906 457.17 330.43C455.41 331.919 454.174 333.883 453.463 336.32L453.514 374H441.174V337.844C441.005 331.378 437.704 328.145 431.272 328.145C426.329 328.145 422.825 330.159 420.76 334.188V374H408.42V319.055H420.049ZM526.479 356.328L537.65 319.055H550.803L528.967 382.328C525.615 391.57 519.928 396.191 511.904 396.191C510.11 396.191 508.13 395.887 505.963 395.277V385.73L508.299 385.883C511.413 385.883 513.749 385.307 515.307 384.156C516.898 383.039 518.15 381.143 519.065 378.469L520.842 373.746L501.545 319.055H514.85L526.479 356.328ZM612.638 325.047C616.667 320.375 621.762 318.039 627.923 318.039C639.637 318.039 645.578 324.725 645.747 338.098V374H633.408V338.555C633.408 334.763 632.578 332.089 630.919 330.531C629.294 328.94 626.891 328.145 623.708 328.145C618.766 328.145 615.076 330.345 612.638 334.746V374H600.298V296H612.638V325.047ZM690.782 375.016C682.962 375.016 676.614 372.561 671.739 367.652C666.898 362.71 664.478 356.142 664.478 347.949V346.426C664.478 340.941 665.527 336.049 667.626 331.75C669.759 327.417 672.738 324.048 676.564 321.645C680.389 319.241 684.655 318.039 689.36 318.039C696.842 318.039 702.614 320.426 706.677 325.199C710.773 329.973 712.821 336.727 712.821 345.461V350.438H676.919C677.291 354.974 678.798 358.562 681.439 361.203C684.113 363.844 687.465 365.164 691.493 365.164C697.147 365.164 701.751 362.879 705.306 358.309L711.958 364.656C709.758 367.94 706.812 370.496 703.122 372.324C699.466 374.118 695.353 375.016 690.782 375.016ZM689.31 327.941C685.924 327.941 683.182 329.126 681.083 331.496C679.018 333.866 677.698 337.167 677.122 341.398H700.634V340.484C700.363 336.354 699.263 333.24 697.333 331.141C695.403 329.008 692.729 327.941 689.31 327.941ZM763.595 374C763.053 372.951 762.579 371.241 762.173 368.871C758.246 372.967 753.438 375.016 747.751 375.016C742.233 375.016 737.73 373.441 734.243 370.293C730.756 367.145 729.013 363.251 729.013 358.613C729.013 352.757 731.179 348.271 735.513 345.156C739.88 342.008 746.109 340.434 754.2 340.434H761.766V336.828C761.766 333.984 760.971 331.716 759.38 330.023C757.789 328.297 755.368 327.434 752.118 327.434C749.308 327.434 747.006 328.145 745.212 329.566C743.417 330.954 742.52 332.732 742.52 334.898H730.18C730.18 331.885 731.179 329.076 733.177 326.469C735.174 323.828 737.882 321.763 741.302 320.273C744.755 318.784 748.597 318.039 752.829 318.039C759.261 318.039 764.39 319.664 768.216 322.914C772.041 326.13 774.005 330.667 774.106 336.523V361.305C774.106 366.247 774.8 370.191 776.188 373.137V374H763.595ZM750.036 365.113C752.473 365.113 754.759 364.521 756.891 363.336C759.058 362.151 760.683 360.56 761.766 358.562V348.203H755.114C750.544 348.203 747.108 348.999 744.805 350.59C742.503 352.181 741.352 354.432 741.352 357.344C741.352 359.714 742.131 361.609 743.688 363.031C745.279 364.419 747.395 365.113 750.036 365.113ZM808.477 374H796.137V296H808.477V374ZM845.742 305.699V319.055H855.442V328.195H845.742V358.867C845.742 360.966 846.149 362.49 846.961 363.438C847.807 364.352 849.297 364.809 851.43 364.809C852.852 364.809 854.29 364.639 855.746 364.301V373.848C852.936 374.626 850.228 375.016 847.621 375.016C838.142 375.016 833.402 369.785 833.402 359.324V328.195H824.363V319.055H833.402V305.699H845.742ZM885.394 325.047C889.423 320.375 894.518 318.039 900.68 318.039C912.393 318.039 918.334 324.725 918.504 338.098V374H906.164V338.555C906.164 334.763 905.334 332.089 903.676 330.531C902.051 328.94 899.647 328.145 896.465 328.145C891.522 328.145 887.832 330.345 885.394 334.746V374H873.055V296H885.394V325.047Z" fill="#0E6AC7"/>
</svg>
