<svg width="850" height="356" viewBox="0 0 850 356" fill="none" xmlns="http://www.w3.org/2000/svg">
<path d="M84.2188 318H71.4219V285.145H38.3633V318H25.5156V244.062H38.3633V274.836H71.4219V244.062H84.2188V318ZM130.777 319.016C122.957 319.016 116.609 316.561 111.734 311.652C106.893 306.71 104.472 300.142 104.472 291.949V290.426C104.472 284.941 105.522 280.049 107.621 275.75C109.754 271.417 112.733 268.048 116.558 265.645C120.384 263.241 124.649 262.039 129.355 262.039C136.837 262.039 142.609 264.426 146.672 269.199C150.768 273.973 152.816 280.727 152.816 289.461V294.438H116.914C117.286 298.974 118.793 302.562 121.433 305.203C124.108 307.844 127.459 309.164 131.488 309.164C137.142 309.164 141.746 306.879 145.3 302.309L151.953 308.656C149.752 311.94 146.807 314.496 143.117 316.324C139.461 318.118 135.347 319.016 130.777 319.016ZM129.304 271.941C125.919 271.941 123.177 273.126 121.078 275.496C119.013 277.866 117.692 281.167 117.117 285.398H140.629V284.484C140.358 280.354 139.257 277.24 137.328 275.141C135.398 273.008 132.724 271.941 129.304 271.941ZM203.589 318C203.048 316.951 202.574 315.241 202.167 312.871C198.24 316.967 193.433 319.016 187.745 319.016C182.227 319.016 177.725 317.441 174.238 314.293C170.751 311.145 169.007 307.251 169.007 302.613C169.007 296.757 171.174 292.271 175.507 289.156C179.874 286.008 186.104 284.434 194.195 284.434H201.761V280.828C201.761 277.984 200.966 275.716 199.374 274.023C197.783 272.297 195.363 271.434 192.113 271.434C189.303 271.434 187.001 272.145 185.206 273.566C183.412 274.954 182.515 276.732 182.515 278.898H170.175C170.175 275.885 171.174 273.076 173.171 270.469C175.169 267.828 177.877 265.763 181.296 264.273C184.749 262.784 188.592 262.039 192.824 262.039C199.256 262.039 204.385 263.664 208.21 266.914C212.036 270.13 213.999 274.667 214.101 280.523V305.305C214.101 310.247 214.795 314.191 216.183 317.137V318H203.589ZM190.031 309.113C192.468 309.113 194.753 308.521 196.886 307.336C199.053 306.151 200.678 304.56 201.761 302.562V292.203H195.109C190.538 292.203 187.102 292.999 184.8 294.59C182.498 296.181 181.347 298.432 181.347 301.344C181.347 303.714 182.126 305.609 183.683 307.031C185.274 308.419 187.39 309.113 190.031 309.113ZM264.112 274.328C262.487 274.057 260.812 273.922 259.085 273.922C253.431 273.922 249.623 276.089 247.659 280.422V318H235.319V263.055H247.101L247.405 269.199C250.384 264.426 254.515 262.039 259.796 262.039C261.556 262.039 263.012 262.276 264.163 262.75L264.112 274.328ZM326.049 263.055L326.405 268.793C330.264 264.29 335.545 262.039 342.248 262.039C349.595 262.039 354.622 264.849 357.33 270.469C361.325 264.849 366.945 262.039 374.19 262.039C380.25 262.039 384.752 263.715 387.698 267.066C390.677 270.418 392.2 275.361 392.268 281.895V318H379.928V282.25C379.928 278.763 379.166 276.207 377.643 274.582C376.12 272.957 373.597 272.145 370.077 272.145C367.267 272.145 364.965 272.906 363.17 274.43C361.41 275.919 360.174 277.883 359.463 280.32L359.514 318H347.174V281.844C347.005 275.378 343.704 272.145 337.272 272.145C332.329 272.145 328.825 274.159 326.76 278.188V318H314.42V263.055H326.049ZM432.479 300.328L443.65 263.055H456.803L434.967 326.328C431.615 335.57 425.928 340.191 417.904 340.191C416.11 340.191 414.13 339.887 411.963 339.277V329.73L414.299 329.883C417.413 329.883 419.749 329.307 421.307 328.156C422.898 327.039 424.15 325.143 425.065 322.469L426.842 317.746L407.545 263.055H420.85L432.479 300.328ZM518.638 269.047C522.667 264.375 527.762 262.039 533.923 262.039C545.637 262.039 551.578 268.725 551.747 282.098V318H539.408V282.555C539.408 278.763 538.578 276.089 536.919 274.531C535.294 272.94 532.891 272.145 529.708 272.145C524.766 272.145 521.076 274.345 518.638 278.746V318H506.298V240H518.638V269.047ZM596.782 319.016C588.962 319.016 582.614 316.561 577.739 311.652C572.898 306.71 570.478 300.142 570.478 291.949V290.426C570.478 284.941 571.527 280.049 573.626 275.75C575.759 271.417 578.738 268.048 582.564 265.645C586.389 263.241 590.655 262.039 595.36 262.039C602.842 262.039 608.614 264.426 612.677 269.199C616.773 273.973 618.821 280.727 618.821 289.461V294.438H582.919C583.291 298.974 584.798 302.562 587.439 305.203C590.113 307.844 593.465 309.164 597.493 309.164C603.147 309.164 607.751 306.879 611.306 302.309L617.958 308.656C615.758 311.94 612.812 314.496 609.122 316.324C605.466 318.118 601.353 319.016 596.782 319.016ZM595.31 271.941C591.924 271.941 589.182 273.126 587.083 275.496C585.018 277.866 583.698 281.167 583.122 285.398H606.634V284.484C606.363 280.354 605.263 277.24 603.333 275.141C601.403 273.008 598.729 271.941 595.31 271.941ZM669.595 318C669.053 316.951 668.579 315.241 668.173 312.871C664.246 316.967 659.438 319.016 653.751 319.016C648.233 319.016 643.73 317.441 640.243 314.293C636.756 311.145 635.013 307.251 635.013 302.613C635.013 296.757 637.179 292.271 641.513 289.156C645.88 286.008 652.109 284.434 660.2 284.434H667.766V280.828C667.766 277.984 666.971 275.716 665.38 274.023C663.789 272.297 661.368 271.434 658.118 271.434C655.308 271.434 653.006 272.145 651.212 273.566C649.417 274.954 648.52 276.732 648.52 278.898H636.18C636.18 275.885 637.179 273.076 639.177 270.469C641.174 267.828 643.882 265.763 647.302 264.273C650.755 262.784 654.597 262.039 658.829 262.039C665.261 262.039 670.39 263.664 674.216 266.914C678.041 270.13 680.005 274.667 680.106 280.523V305.305C680.106 310.247 680.8 314.191 682.188 317.137V318H669.595ZM656.036 309.113C658.473 309.113 660.759 308.521 662.891 307.336C665.058 306.151 666.683 304.56 667.766 302.562V292.203H661.114C656.544 292.203 653.108 292.999 650.805 294.59C648.503 296.181 647.352 298.432 647.352 301.344C647.352 303.714 648.131 305.609 649.688 307.031C651.279 308.419 653.395 309.113 656.036 309.113ZM714.477 318H702.137V240H714.477V318ZM751.742 249.699V263.055H761.442V272.195H751.742V302.867C751.742 304.966 752.149 306.49 752.961 307.438C753.807 308.352 755.297 308.809 757.43 308.809C758.852 308.809 760.29 308.639 761.746 308.301V317.848C758.936 318.626 756.228 319.016 753.621 319.016C744.142 319.016 739.402 313.785 739.402 303.324V272.195H730.363V263.055H739.402V249.699H751.742ZM791.394 269.047C795.423 264.375 800.518 262.039 806.68 262.039C818.393 262.039 824.334 268.725 824.504 282.098V318H812.164V282.555C812.164 278.763 811.334 276.089 809.676 274.531C808.051 272.94 805.647 272.145 802.465 272.145C797.522 272.145 793.832 274.345 791.394 278.746V318H779.055V240H791.394V269.047Z" fill="#0E6AC7"/>
<path d="M165.956 147.052V40.9464C165.951 36.465 164.169 32.1685 161 28.9997C157.831 25.8308 153.535 24.0483 149.053 24.0433L75.4161 24.0415C74.8961 24.0415 74.3821 24.1528 73.9091 24.368C73.4351 24.5832 73.0141 24.8974 72.6721 25.2892C72.3301 25.6811 72.0771 26.1416 71.9281 26.6398C71.7791 27.138 71.7391 27.6622 71.8101 28.1773C71.9301 29.0482 72.3611 29.8463 73.0241 30.424C73.6871 31.0016 74.5361 31.3198 75.4161 31.3197L149.054 31.3201C151.605 31.3231 154.051 32.338 155.856 34.1423C157.66 35.9465 158.675 38.3927 158.678 40.9443V147.05C158.675 149.602 157.66 152.048 155.856 153.852C154.051 155.657 151.605 156.672 149.053 156.674H42.9475C40.396 156.671 37.9499 155.656 36.1457 153.852C34.3415 152.047 33.3264 149.601 33.3229 147.05V110.239H44.9182L55.3658 140.93C55.6186 141.672 56.1046 142.314 56.7514 142.758C57.3983 143.202 58.1713 143.425 58.9552 143.394C59.7392 143.363 60.4921 143.079 61.1017 142.585C61.7113 142.091 62.145 141.414 62.3382 140.653L74.8161 91.5432L89.9681 127.893C90.2361 128.533 90.6801 129.084 91.2501 129.48C91.8201 129.876 92.4911 130.101 93.1841 130.129C93.8771 130.156 94.5641 129.984 95.1631 129.634C95.7621 129.284 96.2491 128.77 96.5661 128.153L105.754 110.236H135.794C136.754 110.228 137.672 109.842 138.348 109.16C139.024 108.478 139.404 107.557 139.404 106.597C139.404 105.637 139.024 104.716 138.348 104.034C137.672 103.353 136.754 102.966 135.794 102.958L103.531 102.959C102.861 102.959 102.205 103.143 101.633 103.492C101.062 103.841 100.598 104.341 100.293 104.937L93.6691 117.853L77.3311 78.6752C77.0371 77.9702 76.5281 77.3752 75.8781 76.9752C75.2271 76.5752 74.4671 76.3892 73.7051 76.4452C72.9441 76.5012 72.2191 76.7952 71.6331 77.2862C71.0481 77.7772 70.6321 78.4392 70.4441 79.1792L58.3006 126.979L50.9672 105.432C50.7223 104.713 50.2584 104.088 49.6405 103.646C49.0227 103.203 48.2818 102.965 47.5219 102.965H33.3208L33.3207 40.9481C33.3236 38.3964 34.3385 35.95 36.1429 34.1457C37.9472 32.3413 40.3936 31.3264 42.9453 31.3236H50.9226C51.4424 31.3236 51.9563 31.2123 52.4296 30.9971C52.9028 30.7818 53.3245 30.4677 53.6661 30.0759C54.0077 29.684 54.2615 29.2234 54.4102 28.7253C54.5589 28.2271 54.5991 27.7029 54.5282 27.1878C54.4083 26.3168 53.9771 25.5187 53.3144 24.941C52.6517 24.3632 51.8022 24.045 50.923 24.045H42.9457C38.4644 24.0501 34.1682 25.8326 30.9994 29.0014C27.8307 32.1701 26.0482 36.4664 26.043 40.9477V147.053C26.0482 151.535 27.8307 155.831 30.9994 159C34.1682 162.168 38.4645 163.951 42.9458 163.956H149.051C153.533 163.952 157.83 162.169 161 159C164.169 155.831 165.952 151.534 165.956 147.052Z" fill="#0E6AC7"/>
<path d="M95.8025 76.6758L110.26 91.1249C110.599 91.4638 111.001 91.7323 111.444 91.9153C111.887 92.0982 112.362 92.1918 112.841 92.1908C113.32 92.1898 113.795 92.0942 114.237 91.9094C114.679 91.7247 115.08 91.4544 115.418 91.1142L129.841 76.5686C131.129 75.2828 132.15 73.7559 132.847 72.0753C133.544 70.3946 133.903 68.5931 133.904 66.7736C133.905 64.9542 133.547 63.1524 132.851 61.4712C132.155 59.79 131.135 58.2623 129.849 56.9755L129.843 56.969C127.63 54.7626 124.738 53.3668 121.633 53.0073C118.529 52.6477 115.395 53.3454 112.736 54.9876C109.835 53.2468 106.398 52.627 103.072 53.2449C99.7455 53.8628 96.7602 55.6758 94.678 58.3423C92.5959 61.0088 91.5608 64.3447 91.7678 67.7214C91.9748 71.0982 93.4095 74.2827 95.8016 76.675L95.8025 76.6758ZM105.604 60.2963C107.314 60.2921 108.958 60.9574 110.183 62.15C110.826 62.7736 111.677 63.1382 112.571 63.1741L112.663 63.1801C113.165 63.2003 113.666 63.1163 114.134 62.9334C114.602 62.7505 115.027 62.4726 115.382 62.1174C116.619 60.8845 118.293 60.1923 120.039 60.1927C121.785 60.1931 123.46 60.8861 124.696 62.1195L124.699 62.1225C125.31 62.7343 125.794 63.4606 126.125 64.26C126.455 65.0593 126.624 65.916 126.623 66.7808C126.621 67.6457 126.449 68.5017 126.116 69.3C125.783 70.0982 125.296 70.823 124.683 71.4327L112.819 83.3969L100.944 71.5288C100.024 70.6084 99.3977 69.4357 99.144 68.1592C98.8904 66.8826 99.021 65.5595 99.5194 64.3572C100.018 63.1549 100.862 62.1275 101.944 61.4048C103.026 60.6821 104.299 60.2966 105.6 60.2972L105.604 60.2963Z" fill="#0E6AC7"/>
</svg>
